<svg xmlns="http://www.w3.org/2000/svg" viewBox="0 0 38.35 36.87"><defs><style>.cls-1{fill:#808285;}</style></defs><title>actualizacion</title><g id="Capa_2" data-name="Capa 2"><g id="Capa_1-2" data-name="Capa 1"><path class="cls-1" d="M37.13,24.39l-.7.37a18.66,18.66,0,0,0-1-15A18.47,18.47,0,0,0,10.49,2.17l-.21.11,1.23,2.29.2-.11A15.92,15.92,0,0,1,33.15,11a15.92,15.92,0,0,1,.49,13.9l-.79-1.72L30.5,24.21l1.84,4.05a.32.32,0,0,0,.07.18,1.69,1.69,0,0,0,.62.5l.31.26-.1-.18a1.23,1.23,0,0,0,.92-.11l4.19-2.24Z"/><path class="cls-1" d="M26.65,32.41A15.83,15.83,0,0,1,4.72,12l.78,1.72,2.36-1.08L6,8.56a1.26,1.26,0,0,0-.77-.67A1.3,1.3,0,0,0,4.2,8L0,10.2l1.22,2.28.7-.37a18.68,18.68,0,0,0,1,15,18.43,18.43,0,0,0,25,7.57l.2-.1L26.85,32.3Z"/></g></g></svg>