<svg xmlns="http://www.w3.org/2000/svg" viewBox="0 0 33.61 32.61"><defs><style>.cls-1{fill:#808285;}</style></defs><title>apps</title><g id="Capa_2" data-name="Capa 2"><g id="Capa_1-2" data-name="Capa 1"><path class="cls-1" d="M11.94,0H3.49A3.5,3.5,0,0,0,0,3.49v8.45a3.5,3.5,0,0,0,3.49,3.5h8.45a3.5,3.5,0,0,0,3.5-3.5V3.49A3.5,3.5,0,0,0,11.94,0m1.67,11.94a1.67,1.67,0,0,1-1.67,1.68H3.49a1.68,1.68,0,0,1-1.67-1.68V3.49A1.67,1.67,0,0,1,3.49,1.82h8.45a1.67,1.67,0,0,1,1.67,1.67Z"/><path class="cls-1" d="M30.12,0H21.67a3.49,3.49,0,0,0-3.49,3.49v8.45a3.5,3.5,0,0,0,3.49,3.5h8.45a3.5,3.5,0,0,0,3.49-3.5V3.49A3.49,3.49,0,0,0,30.12,0m1.67,11.94a1.68,1.68,0,0,1-1.67,1.68H21.67A1.68,1.68,0,0,1,20,11.94V3.49a1.67,1.67,0,0,1,1.67-1.67h8.45a1.67,1.67,0,0,1,1.67,1.67Z"/><path class="cls-1" d="M11.94,17.18H3.49A3.49,3.49,0,0,0,0,20.67v8.45a3.49,3.49,0,0,0,3.49,3.49h8.45a3.5,3.5,0,0,0,3.5-3.49V20.67a3.5,3.5,0,0,0-3.5-3.49m1.67,11.94a1.67,1.67,0,0,1-1.67,1.67H3.49a1.67,1.67,0,0,1-1.67-1.67V20.67A1.67,1.67,0,0,1,3.49,19h8.45a1.67,1.67,0,0,1,1.67,1.67Z"/><path class="cls-1" d="M30.12,17.18H21.67a3.49,3.49,0,0,0-3.49,3.49v8.45a3.49,3.49,0,0,0,3.49,3.49h8.45a3.49,3.49,0,0,0,3.49-3.49V20.67a3.49,3.49,0,0,0-3.49-3.49m1.67,11.94a1.67,1.67,0,0,1-1.67,1.67H21.67A1.67,1.67,0,0,1,20,29.12V20.67A1.67,1.67,0,0,1,21.67,19h8.45a1.67,1.67,0,0,1,1.67,1.67Z"/></g></g></svg>