<svg xmlns="http://www.w3.org/2000/svg" viewBox="0 0 30.45 35.22"><defs><style>.cls-1{fill:#808285;}</style></defs><title>seguridad</title><g id="Capa_2" data-name="Capa 2"><g id="Capa_1-2" data-name="Capa 1"><path class="cls-1" d="M15.41,35.22a.84.84,0,0,1-.56-.2L9.44,30.71l1.14-1.42,4.79,3.82,7.24-6.74L15.43,24,7.36,26.85a.9.9,0,0,1-1.09-.4L3.16,21.07a.91.91,0,0,1,.47-1.31L15.1,15.52a.86.86,0,0,1,.63,0l10.47,3.9,1.06-3.63L15.41,11.33l-13,4.76A.92.92,0,0,1,1.62,16a1,1,0,0,1-.43-.66L0,6.33a.9.9,0,0,1,.59-1L4.92,3.77a.93.93,0,0,1,.84.11.92.92,0,0,1,.39.74v1.5L9.1,5V3a.9.9,0,0,1,.58-.84L15.08.06a.94.94,0,0,1,.66,0L21.2,2.18a.92.92,0,0,1,.58.85V5l3,1.09V4.62a.91.91,0,0,1,.4-.75A.94.94,0,0,1,26,3.78l3.88,1.59a.9.9,0,0,1,.56.84V11H28.63V6.82L26.57,6V7.42a.9.9,0,0,1-.39.75.91.91,0,0,1-.83.11L20.56,6.52a.91.91,0,0,1-.6-.85v-2L15.42,1.89l-4.5,1.76v2a.9.9,0,0,1-.59.85L5.55,8.28a.91.91,0,0,1-.83-.11.9.9,0,0,1-.39-.75V5.93l-2.42.88L2.85,14,15.1,9.5a.94.94,0,0,1,.64,0l13,4.88a.91.91,0,0,1,.55,1.1l-1.57,5.38a.91.91,0,0,1-1.19.6L15.41,17.34,5.27,21.09l2.19,3.79,7.65-2.72a.86.86,0,0,1,.59,0l8.94,3a.92.92,0,0,1,.6.67.9.9,0,0,1-.27.86L16,35a.94.94,0,0,1-.63.24"/></g></g></svg>