<svg xmlns="http://www.w3.org/2000/svg" viewBox="0 0 48.42 38.71"><defs><style>.cls-1{fill:#808285;}</style></defs><title>transferencia</title><g id="Capa_2" data-name="Capa 2"><g id="Capa_1-2" data-name="Capa 1"><path class="cls-1" d="M44.93,38.71H32.46A3.5,3.5,0,0,1,29,35.22V10.52A3.5,3.5,0,0,1,32.46,7H44.93a3.49,3.49,0,0,1,3.49,3.49v24.7a3.49,3.49,0,0,1-3.49,3.49M32.46,8.85a1.68,1.68,0,0,0-1.68,1.67v24.7a1.68,1.68,0,0,0,1.68,1.67H44.93a1.67,1.67,0,0,0,1.67-1.67V10.52a1.67,1.67,0,0,0-1.67-1.67Z"/><path class="cls-1" d="M40.9,34.8H36.79a.71.71,0,0,1,0-1.41H40.9a.71.71,0,0,1,0,1.41"/><path class="cls-1" d="M9,28v1.82H29V28H21.7V25.34H29V23.52H3.49a1.67,1.67,0,0,1-1.67-1.67V3.49A1.67,1.67,0,0,1,3.49,1.82H38.08a1.67,1.67,0,0,1,1.67,1.67V7h1.82V3.49A3.49,3.49,0,0,0,38.08,0H3.49A3.5,3.5,0,0,0,0,3.49V21.85a3.5,3.5,0,0,0,3.49,3.49H19.88V28Z"/><polygon class="cls-1" points="19.56 14.57 16.29 11.3 15.01 12.59 19.56 17.14 26.57 10.13 25.28 8.85 19.56 14.57"/></g></g></svg>